<?xml version="1.0" encoding="utf-8"?>
<!-- Generator: Adobe Illustrator 25.0.0, SVG Export Plug-In . SVG Version: 6.00 Build 0)  -->
<svg version="1.1" id="Layer_1" xmlns="http://www.w3.org/2000/svg" xmlns:xlink="http://www.w3.org/1999/xlink" x="0px" y="0px"
	 viewBox="0 0 122.9 92.2" style="enable-background:new 0 0 122.9 92.2;" xml:space="preserve">
<style type="text/css">
	.st0{fill:#FFFFFF;}
</style>
<g>
	<path class="st0" d="M78.8,34.1c-1.3-1.3-1.3-3.4,0-4.6c1.3-1.3,3.4-1.3,4.6,0l12,12l12-12c1.3-1.3,3.4-1.3,4.6,0
		c1.3,1.3,1.3,3.4,0,4.6l-12,12l12,12c1.3,1.3,1.3,3.4,0,4.6c-1.3,1.3-3.4,1.3-4.6,0l-12-12l-12,12c-1.3,1.3-3.4,1.3-4.6,0
		c-1.3-1.3-1.3-3.4,0-4.6l12-12L78.8,34.1L78.8,34.1z M10.5,21.8h24.3L55.4,1c1.3-1.3,3.3-1.3,4.6,0c0.6,0.6,1,1.5,1,2.3h0v85.5
		c0,1.8-1.5,3.3-3.3,3.3c-0.9,0-1.8-0.4-2.4-1L34.9,73.9H10.5c-2.9,0-5.5-1.2-7.4-3.1C1.2,68.9,0,66.3,0,63.4V32.3
		c0-2.9,1.2-5.5,3.1-7.4C5,23,7.6,21.8,10.5,21.8L10.5,21.8z M36.1,28.4H10.5c-1.1,0-2,0.4-2.7,1.1s-1.1,1.7-1.1,2.7v31.1
		c0,1.1,0.4,2,1.1,2.7c0.7,0.7,1.7,1.1,2.7,1.1h25.6v0c0.7,0,1.5,0.2,2.1,0.8l16.2,13.7V11.3l-15.9,16C38,28,37.1,28.4,36.1,28.4
		L36.1,28.4z"/>
</g>
</svg>
