<?xml version="1.0" encoding="utf-8"?>
<!-- Generator: Adobe Illustrator 25.0.0, SVG Export Plug-In . SVG Version: 6.00 Build 0)  -->
<svg version="1.1" id="Layer_1" xmlns="http://www.w3.org/2000/svg" xmlns:xlink="http://www.w3.org/1999/xlink" x="0px" y="0px"
	 viewBox="0 0 122.9 92.2" style="enable-background:new 0 0 122.9 92.2;" xml:space="preserve">
<style type="text/css">
	.st0{fill:#FFFFFF;}
</style>
<g>
	<path class="st0" d="M78.4,9.7c-1.8,0-3.3-1.5-3.3-3.3c0-1.8,1.5-3.3,3.3-3.3c12.3,0,23.4,5,31.5,13c8.1,8.1,13,19.2,13,31.5
		s-5,23.4-13,31.5c-8.1,8.1-19.2,13-31.5,13c-1.8,0-3.3-1.5-3.3-3.3s1.5-3.3,3.3-3.3c10.5,0,20-4.3,26.8-11.1
		c6.9-6.9,11.1-16.3,11.1-26.8s-4.3-20-11.1-26.8C98.3,14,88.8,9.7,78.4,9.7L78.4,9.7z M10.5,21.8h24.3L55.4,1
		c1.3-1.3,3.3-1.3,4.6,0c0.6,0.6,1,1.5,1,2.3h0v85.5c0,1.8-1.5,3.3-3.3,3.3c-0.9,0-1.8-0.4-2.3-1L34.9,73.8H10.5
		c-2.9,0-5.5-1.2-7.4-3.1C1.2,68.9,0,66.2,0,63.4V32.2c0-2.9,1.2-5.5,3.1-7.4C5,22.9,7.6,21.8,10.5,21.8L10.5,21.8z M36.1,28.3H10.5
		c-1.1,0-2,0.4-2.8,1.1s-1.2,1.7-1.2,2.8v31.1c0,1.1,0.4,2,1.2,2.8s1.7,1.2,2.8,1.2h25.6v0c0.7,0,1.5,0.3,2.1,0.8l16.3,13.7V11.2
		l-15.8,16C38,27.9,37.1,28.3,36.1,28.3L36.1,28.3z M76.7,28.5c-1.5,0-2.7-1.2-2.7-2.7s1.2-2.7,2.7-2.7c7,0,13.3,2.8,17.9,7.4
		c4.6,4.6,7.4,10.9,7.4,17.9s-2.8,13.3-7.4,17.9c-4.6,4.6-10.9,7.4-17.9,7.4c-1.5,0-2.7-1.2-2.7-2.7s1.2-2.7,2.7-2.7
		c5.5,0,10.4-2.2,14-5.8s5.8-8.5,5.8-14s-2.2-10.4-5.8-14C87.1,30.7,82.2,28.5,76.7,28.5L76.7,28.5z"/>
</g>
</svg>
